<svg width="20" height="20" viewBox="0 0 20 20" fill="none" xmlns="http://www.w3.org/2000/svg">
<path d="M4.99935 16.6665H14.9993C15.4577 16.6665 15.8327 17.0415 15.8327 17.4998C15.8327 17.9582 15.4577 18.3332 14.9993 18.3332H4.99935C4.54102 18.3332 4.16602 17.9582 4.16602 17.4998C4.16602 17.0415 4.54102 16.6665 4.99935 16.6665ZM9.99935 5.83317C9.08268 5.83317 8.33268 6.58317 8.33268 7.49984C8.33268 8.4165 9.08268 9.1665 9.99935 9.1665C10.916 9.1665 11.666 8.4165 11.666 7.49984C11.666 6.58317 10.916 5.83317 9.99935 5.83317ZM9.99935 1.6665C12.7243 1.6665 15.8327 3.7165 15.8327 7.62484C15.8327 10.1082 14.0577 12.7248 10.5077 15.4498C10.2077 15.6832 9.79102 15.6832 9.49102 15.4498C5.94102 12.7165 4.16602 10.1082 4.16602 7.62484C4.16602 3.7165 7.27435 1.6665 9.99935 1.6665Z" fill="#333333" fill-opacity="0.7"/>
</svg>
