<svg width="20" height="20" viewBox="0 0 20 20" fill="none" xmlns="http://www.w3.org/2000/svg">
<path d="M4.99935 16.6666H14.9993C15.4577 16.6666 15.8327 17.0416 15.8327 17.5C15.8327 17.9583 15.4577 18.3333 14.9993 18.3333H4.99935C4.54102 18.3333 4.16602 17.9583 4.16602 17.5C4.16602 17.0416 4.54102 16.6666 4.99935 16.6666ZM9.99935 5.83329C9.08268 5.83329 8.33268 6.58329 8.33268 7.49996C8.33268 8.41663 9.08268 9.16663 9.99935 9.16663C10.916 9.16663 11.666 8.41663 11.666 7.49996C11.666 6.58329 10.916 5.83329 9.99935 5.83329ZM9.99935 1.66663C12.7243 1.66663 15.8327 3.71663 15.8327 7.62496C15.8327 10.1083 14.0577 12.725 10.5077 15.45C10.2077 15.6833 9.79102 15.6833 9.49102 15.45C5.94102 12.7166 4.16602 10.1083 4.16602 7.62496C4.16602 3.71663 7.27435 1.66663 9.99935 1.66663Z" fill="white"/>
</svg>
