<svg width="20" height="20" viewBox="0 0 20 20" fill="none" xmlns="http://www.w3.org/2000/svg">
<g clip-path="url(#clip0_755_6681)">
<path d="M8.45515 11.4665C9.61486 12.643 11.0181 13.5513 12.5663 14.1276L14.6607 12.461C14.7228 12.4182 14.7964 12.3953 14.8718 12.3953C14.9472 12.3953 15.0208 12.4182 15.0829 12.461L18.9718 14.9665C19.1195 15.0553 19.2444 15.1772 19.3369 15.3225C19.4293 15.4679 19.4867 15.6327 19.5045 15.8041C19.5223 15.9754 19.5 16.1486 19.4393 16.3098C19.3787 16.4711 19.2814 16.616 19.1551 16.7332L17.3329 18.5332C17.072 18.791 16.7512 18.9803 16.3993 19.084C16.0474 19.1877 15.6754 19.2027 15.3163 19.1276C11.7342 18.3878 8.43244 16.6551 5.78848 14.1276C3.20319 11.575 1.41419 8.32699 0.638479 4.77763C0.561849 4.4241 0.577843 4.05677 0.68491 3.71123C0.791978 3.36569 0.986488 3.05368 1.24959 2.80541L3.13848 0.983188C3.25537 0.86307 3.39792 0.770952 3.55545 0.713732C3.71298 0.656511 3.88142 0.635671 4.04815 0.652771C4.21488 0.669872 4.37558 0.72447 4.51822 0.812477C4.66086 0.900485 4.78174 1.01962 4.87181 1.16097L7.4607 4.99986C7.50536 5.06014 7.52946 5.13317 7.52946 5.20819C7.52946 5.28321 7.50536 5.35624 7.4607 5.41652L5.75515 7.46652C6.34713 8.98371 7.26944 10.3501 8.45515 11.4665V11.4665Z" fill="#333333" fill-opacity="0.7"/>
</g>
<defs>
<clipPath id="clip0_755_6681">
<rect width="20" height="20" fill="white"/>
</clipPath>
</defs>
</svg>
