<svg width="20" height="20" viewBox="0 0 20 20" fill="none" xmlns="http://www.w3.org/2000/svg">
<path fill-rule="evenodd" clip-rule="evenodd" d="M13.867 11.7016C13.6541 11.5952 12.6106 11.0823 12.4163 11.0109C12.222 10.9402 12.0806 10.9052 11.9384 11.118C11.797 11.3294 11.3906 11.808 11.267 11.9494C11.1427 12.0916 11.0191 12.1087 10.807 12.003C10.5949 11.8959 9.91058 11.6723 9.09986 10.9494C8.46915 10.3866 8.04272 9.69158 7.91915 9.47873C7.79558 9.26658 7.90558 9.15158 8.01201 9.04587C8.10772 8.95087 8.22415 8.79801 8.33058 8.67444C8.43701 8.55016 8.47201 8.46159 8.54272 8.31944C8.61415 8.17801 8.57844 8.05444 8.52486 7.94801C8.47201 7.84159 8.04772 6.79659 7.87058 6.37159C7.69844 5.95802 7.52344 6.01445 7.39344 6.0073C7.26915 6.00159 7.12772 6.00016 6.9863 6.00016C6.84487 6.00016 6.61487 6.05302 6.42058 6.26587C6.22558 6.47802 5.67773 6.99159 5.67773 8.03659C5.67773 9.08087 6.43773 10.0902 6.54415 10.2323C6.65058 10.3737 8.04058 12.518 10.1699 13.4373C10.677 13.6559 11.072 13.7866 11.3799 13.8837C11.8884 14.0459 12.3513 14.023 12.717 13.968C13.1241 13.9073 13.9727 13.4544 14.1499 12.9587C14.3263 12.463 14.3263 12.038 14.2734 11.9494C14.2206 11.8609 14.0791 11.808 13.8663 11.7016H13.867ZM9.99415 16.9894H9.99129C8.7266 16.9897 7.48513 16.6497 6.39701 16.0051L6.13987 15.8523L3.46702 16.5537L4.18059 13.948L4.01273 13.6809C3.30569 12.5554 2.93151 11.2529 2.93345 9.92373C2.93487 6.03088 6.10201 2.86374 9.997 2.86374C11.8827 2.86374 13.6556 3.59945 14.9884 4.93373C15.6458 5.58843 16.1669 6.36699 16.5215 7.22437C16.876 8.08175 17.0571 9.00093 17.0541 9.92873C17.0527 13.8216 13.8856 16.9894 9.99415 16.9894ZM16.0027 3.92016C15.2157 3.12797 14.2793 2.49984 13.2478 2.07217C12.2162 1.6445 11.1101 1.4258 9.99343 1.42874C5.31201 1.42874 1.50059 5.23945 1.49916 9.92301C1.49845 11.4202 1.88916 12.8816 2.63273 14.1694L1.42773 18.5716L5.93058 17.3901C7.17621 18.0688 8.57207 18.4244 9.99058 18.4244H9.99415C14.6756 18.4244 18.487 14.6137 18.4884 9.92944C18.4919 8.81321 18.274 7.70737 17.8473 6.6759C17.4206 5.64442 16.7937 4.70778 16.0027 3.92016Z" fill="white"/>
</svg>
